<svg xmlns="http://www.w3.org/2000/svg" width="79" height="82" viewBox="0 0 79 82" fill="none"><path d="M34.0118 50.4546C35.9905 50.4546 37.5879 52.0582 37.5879 54.0299C37.5879 56.0015 35.9839 57.6051 34.0118 57.6051C32.6379 57.6051 31.4481 56.8362 30.8499 55.6992H0.0788832C0.295812 57.0465 1.00576 58.2821 2.08383 59.1562L17.8013 71.8602H23.3494C30.1794 65.1434 38.0414 55.8766 45.9429 44.5199C48.7104 40.5438 51.3004 36.561 53.6866 32.6506H44.6808C44.122 33.8993 42.873 34.7734 41.4137 34.7734C39.4351 34.7734 37.8377 33.1698 37.8377 31.1981C37.8377 29.2265 39.4416 27.6229 41.4137 27.6229C42.8402 27.6229 44.0694 28.4641 44.6413 29.6734H55.4615C57.3152 26.5122 59.0244 23.4101 60.5626 20.4H27.6552L25.1901 17.1862C25.098 17.1928 25.006 17.1994 24.9074 17.1994C22.9287 17.1994 21.3313 15.5958 21.3313 13.6241C21.3313 11.6525 22.9353 10.0489 24.9074 10.0489C26.8795 10.0489 28.4834 11.6525 28.4834 13.6241C28.4834 14.3996 28.2336 15.116 27.8129 15.7009L29.1276 17.4163H34.0381L44.1089 6.84163H52.9109C53.3514 5.3629 54.7187 4.28506 56.3424 4.28506C58.321 4.28506 59.9184 5.88867 59.9184 7.86032C59.9184 9.83197 58.3144 11.4356 56.3424 11.4356C55.0934 11.4356 53.9956 10.7981 53.3579 9.8254H45.3973L38.1663 17.4097H62.0548C63.5273 14.3668 64.8223 11.4356 65.8938 8.6687C67.2282 5.23802 68.1025 2.36598 68.635 0H5.60071C2.51112 0 0 2.504 0 5.59949V26.7159H16.0988C16.6641 25.4869 17.9065 24.6325 19.3461 24.6325C21.3248 24.6325 22.9222 26.2361 22.9222 28.2078C22.9222 30.1794 21.3182 31.783 19.3461 31.783C17.9065 31.783 16.6641 30.9287 16.0988 29.6997H5.627L8.20386 35.2729H22.153C22.6987 33.9979 23.9674 33.1106 25.4398 33.1106C27.4185 33.1106 29.0159 34.7142 29.0159 36.6859C29.0159 38.6575 27.4119 40.2612 25.4398 40.2612C24.0265 40.2612 22.8104 39.4462 22.2319 38.2566H6.29094L2.33363 29.6997H0V52.7154H30.6856C31.2115 51.3878 32.4999 50.448 34.0118 50.448V50.4546Z" fill="url(#paint0_linear_188_1600)"></path><path d="M70.8306 56.3564H56.7499C56.1846 57.5854 54.9422 58.4398 53.5026 58.4398C51.5239 58.4398 49.9265 56.8362 49.9265 54.8646C49.9265 52.8929 51.5305 51.2893 53.5026 51.2893C54.9422 51.2893 56.1846 52.1437 56.7499 53.3727H68.7402L71.5668 45.5846H64.0006C63.4353 46.8136 62.1929 47.668 60.7532 47.668C58.7746 47.668 57.1772 46.0644 57.1772 44.0928C57.1772 43.5407 57.3021 43.0215 57.5256 42.5549C56.0531 44.8288 54.528 47.116 52.9438 49.3899C49.0982 54.9171 45.1804 60.0894 41.2888 64.8148H51.2478C51.8131 63.5858 53.0556 62.7314 54.4952 62.7314C56.4738 62.7314 58.0712 64.3351 58.0712 66.3067C58.0712 68.2784 56.4673 69.882 54.4952 69.882C53.0556 69.882 51.8131 69.0276 51.2478 67.7986H38.7843C37.5879 69.1985 36.3915 70.5523 35.2082 71.8668H39.5797C40.1844 70.7495 41.3677 69.9937 42.7284 69.9937C44.7071 69.9937 46.3045 71.5973 46.3045 73.569C46.3045 75.5406 44.7005 77.1442 42.7284 77.1442C41.2034 77.1442 39.9083 76.1913 39.389 74.8505H32.4473C30.7973 76.5922 29.1671 78.2286 27.5631 79.7534L28.3257 80.3712C29.3248 81.1795 30.5673 81.6133 31.8491 81.6133H48.9208C50.2749 81.6133 51.5831 81.1204 52.602 80.2332L76.4773 59.3994C77.6934 58.3347 78.3968 56.7968 78.3968 55.18V45.5781H74.7419L70.8306 56.3564Z" fill="url(#paint1_linear_188_1600)"></path><path d="M65.289 29.6668H78.3179V32.6506H63.5996C61.8642 35.6541 60.0104 38.7036 58.0449 41.7596C58.7023 40.9973 59.6752 40.5109 60.7598 40.5109C62.1994 40.5109 63.4418 41.3653 64.0072 42.5943H78.4034V20.3935H70.1141C68.6613 23.4036 67.0508 26.5056 65.2956 29.6668H65.289Z" fill="url(#paint2_linear_188_1600)"></path><path d="M77.161 2.0965C76.5233 4.56763 75.7082 7.03877 74.8536 9.34561C73.9004 11.9219 72.7698 14.6231 71.5011 17.4097H78.3902V5.60604C78.3902 4.27846 77.9235 3.06261 77.1544 2.10307L77.161 2.0965Z" fill="url(#paint3_linear_188_1600)"></path><defs><linearGradient id="paint0_linear_188_1600" x1="5.57442" y1="-4.35078" x2="51.368" y2="47.9342" gradientUnits="userSpaceOnUse"><stop stop-color="#3ADFE6"></stop><stop offset="0.44" stop-color="#44B2E7"></stop><stop offset="1" stop-color="#1D4566"></stop></linearGradient><linearGradient id="paint1_linear_188_1600" x1="33.4662" y1="15.6221" x2="56.1105" y2="70.2404" gradientUnits="userSpaceOnUse"><stop stop-color="#121243"></stop><stop offset="1" stop-color="#1D4566"></stop></linearGradient><linearGradient id="paint2_linear_188_1600" x1="57.6505" y1="5.59295" x2="80.2947" y2="60.2112" gradientUnits="userSpaceOnUse"><stop stop-color="#121243"></stop><stop offset="1" stop-color="#1D4566"></stop></linearGradient><linearGradient id="paint3_linear_188_1600" x1="70.515" y1="0.256288" x2="93.1658" y2="54.8746" gradientUnits="userSpaceOnUse"><stop stop-color="#121243"></stop><stop offset="1" stop-color="#1D4566"></stop></linearGradient></defs></svg>